<svg width="30" height="30" viewBox="0 0 30 30" fill="none" xmlns="http://www.w3.org/2000/svg">
<g id="icon_profile">
<path id="Vector" d="M22.9767 23.9666C22.045 22.7331 20.8397 21.7327 19.4556 21.0444C18.0715 20.356 16.5465 19.9985 15.0007 19.9999C13.4549 19.9985 11.9298 20.356 10.5458 21.0444C9.16167 21.7327 7.95632 22.7331 7.02467 23.9666M22.9767 23.9666C24.7947 22.3495 26.0768 20.2179 26.6556 17.8546C27.2343 15.4913 27.081 13.0079 26.216 10.7337C25.3509 8.45952 23.815 6.50203 21.8119 5.12084C19.8088 3.73964 17.4331 3 15 3C12.5669 3 10.1912 3.73964 8.18814 5.12084C6.18503 6.50203 4.64911 8.45952 3.78405 10.7337C2.91899 13.0079 2.76567 15.4913 3.34443 17.8546C3.92318 20.2179 5.20667 22.3495 7.02467 23.9666M22.9767 23.9666C20.782 25.9242 17.9415 27.0042 15.0007 27C12.0594 27.0045 9.21965 25.9245 7.02467 23.9666M19.0007 11.9997C19.0007 13.0606 18.5792 14.0781 17.8291 14.8282C17.0789 15.5784 16.0615 15.9998 15.0007 15.9998C13.9398 15.9998 12.9224 15.5784 12.1722 14.8282C11.4221 14.0781 11.0007 13.0606 11.0007 11.9997C11.0007 10.9389 11.4221 9.92143 12.1722 9.17128C12.9224 8.42112 13.9398 7.99969 15.0007 7.99969C16.0615 7.99969 17.0789 8.42112 17.8291 9.17128C18.5792 9.92143 19.0007 10.9389 19.0007 11.9997Z" stroke="#1F1F1F" stroke-width="1.5" stroke-linecap="round" stroke-linejoin="round"/>
</g>
</svg>
