<svg width="50" height="17" viewBox="0 0 50 17" fill="none" xmlns="http://www.w3.org/2000/svg">
<path d="M12.25 17H9.90625L7.09375 12.2891C6.83594 11.8516 6.58594 11.4805 6.34375 11.1758C6.10156 10.8633 5.85156 10.6094 5.59375 10.4141C5.34375 10.2188 5.07031 10.0781 4.77344 9.99219C4.48438 9.89844 4.15625 9.85156 3.78906 9.85156H2.17188V17H0.203125V0.195312H5.21875C5.95312 0.195312 6.62891 0.289062 7.24609 0.476562C7.87109 0.65625 8.41016 0.933594 8.86328 1.30859C9.32422 1.68359 9.68359 2.15234 9.94141 2.71484C10.1992 3.26953 10.3281 3.92188 10.3281 4.67188C10.3281 5.25781 10.2383 5.79688 10.0586 6.28906C9.88672 6.77344 9.63672 7.20703 9.30859 7.58984C8.98828 7.97266 8.59766 8.30078 8.13672 8.57422C7.68359 8.83984 7.17188 9.04688 6.60156 9.19531V9.24219C6.88281 9.36719 7.125 9.51172 7.32812 9.67578C7.53906 9.83203 7.73828 10.0195 7.92578 10.2383C8.11328 10.457 8.29688 10.707 8.47656 10.9883C8.66406 11.2617 8.87109 11.582 9.09766 11.9492L12.25 17ZM2.17188 1.97656V8.07031H4.84375C5.33594 8.07031 5.78906 7.99609 6.20312 7.84766C6.625 7.69922 6.98828 7.48828 7.29297 7.21484C7.59766 6.93359 7.83594 6.59375 8.00781 6.19531C8.17969 5.78906 8.26562 5.33594 8.26562 4.83594C8.26562 3.9375 7.97266 3.23828 7.38672 2.73828C6.80859 2.23047 5.96875 1.97656 4.86719 1.97656H2.17188ZM16.5391 17H14.5703V0.195312H16.5391V17ZM29.6875 17H20.9688V0.195312H22.9375V15.2188H29.6875V17ZM49.3984 17H47.4414V5.72656C47.4414 4.83594 47.4961 3.74609 47.6055 2.45703H47.5586C47.3711 3.21484 47.2031 3.75781 47.0547 4.08594L41.3125 17H40.3516L34.6211 4.17969C34.457 3.80469 34.2891 3.23047 34.1172 2.45703H34.0703C34.1328 3.12891 34.1641 4.22656 34.1641 5.75V17H32.2656V0.195312H34.8672L40.0234 11.9141C40.4219 12.8125 40.6797 13.4844 40.7969 13.9297H40.8672C41.2031 13.0078 41.4727 12.3203 41.6758 11.8672L46.9375 0.195312H49.3984V17Z" fill="#1F1F1F"/>
</svg>
